HIERARCHY
ROOT Hips
{
	OFFSET 0.000000 0.000000 0.000000
	CHANNELS 6 Xposition Yposition Zposition Zrotation Yrotation Xrotation 
	JOINT LowerBack
	{
		OFFSET 0.000000 0.000000 0.000000
		CHANNELS 3 Zrotation Yrotation Xrotation
		JOINT Spine
		{
			OFFSET 0.028270 2.035590 -0.193380
			CHANNELS 3 Zrotation Yrotation Xrotation
			JOINT Spine1
			{
				OFFSET 0.056720 2.048850 -0.042750
				CHANNELS 3 Zrotation Yrotation Xrotation
				JOINT Neck
				{
					OFFSET 0.000000 0.000000 0.000000
					CHANNELS 3 Zrotation Yrotation Xrotation
					JOINT Neck1
					{
						OFFSET -0.054170 1.746240 0.172020
						CHANNELS 3 Zrotation Yrotation Xrotation
						JOINT Head
						{
							OFFSET 0.104070 1.761360 -0.123970
							CHANNELS 3 Zrotation Yrotation Xrotation
							End Site
							{
								OFFSET 0.000000 0.000000 0.000000
							}
						}
					}
				}
				JOINT LeftShoulder
				{
					OFFSET 0.000000 0.000000 0.000000
					CHANNELS 3 Zrotation Yrotation Xrotation
					JOINT LeftArm
					{
						OFFSET 3.362410 1.200890 -0.311210
						CHANNELS 3 Zrotation Yrotation Xrotation
						JOINT LeftForeArm
						{
							OFFSET 4.983000 -0.000000 -0.000000
							CHANNELS 3 Zrotation Yrotation Xrotation
							JOINT LeftHand
							{
								OFFSET 3.483560 -0.000000 -0.000000
								CHANNELS 3 Zrotation Yrotation Xrotation
								JOINT LeftFingerBase
								{
									OFFSET 0.000000 0.000000 0.000000
									CHANNELS 3 Zrotation Yrotation Xrotation
									JOINT LeftHandIndex1
									{
										OFFSET 0.715260 -0.000000 -0.000000
										CHANNELS 3 Zrotation Yrotation Xrotation
										End Site
										{
											OFFSET 0.000000 0.000000 0.000000
										}
									}
								}
								JOINT LThumb
								{
									OFFSET 0.000000 0.000000 0.000000
									CHANNELS 3 Zrotation Yrotation Xrotation
									End Site
									{
										OFFSET 0.000000 0.000000 0.000000
									}
								}
							}
						}
					}
				}
				JOINT RightShoulder
				{
					OFFSET 0.000000 0.000000 0.000000
					CHANNELS 3 Zrotation Yrotation Xrotation
					JOINT RightArm
					{
						OFFSET -3.136600 1.374050 -0.404650
						CHANNELS 3 Zrotation Yrotation Xrotation
						JOINT RightForeArm
						{
							OFFSET -5.241900 -0.000000 -0.000000
							CHANNELS 3 Zrotation Yrotation Xrotation
							JOINT RightHand
							{
								OFFSET -3.444170 -0.000000 -0.000000
								CHANNELS 3 Zrotation Yrotation Xrotation
								JOINT RightFingerBase
								{
									OFFSET 0.000000 0.000000 0.000000
									CHANNELS 3 Zrotation Yrotation Xrotation
									JOINT RightHandIndex1
									{
										OFFSET -0.622530 -0.000000 -0.000000
										CHANNELS 3 Zrotation Yrotation Xrotation
										End Site
										{
											OFFSET 0.000000 0.000000 0.000000
										}
									}
								}
								JOINT RThumb
								{
									OFFSET 0.000000 0.000000 0.000000
									CHANNELS 3 Zrotation Yrotation Xrotation
									End Site
									{
										OFFSET 0.000000 0.000000 0.000000
									}
								}
							}
						}
					}
				}
			}
		}
	}
}
}
MOTION
Frames: 9
Frame Time: 0.008333
-0.762621 17.110034 0.375099 118.162199 88.497704 116.977554 0.520323 -0.915011 -1.378729 -0.489050 -1.010487 -2.761417 -5.390945 -1.035224 1.766045 5.917218 -8.755704 -7.415179 -2.760716 -0.216269 0.058544 0.000000 0.000000 0.000000 -2.722728 17.371532 1.088025 -57.419396 9.320497 2.018378 -4.129298 -21.017160 -0.004251 1.856339 2.532276 0.045709 -0.152049 -0.051043 -0.000000 0.000000 0.000000 0.000000 0.000000 0.000000 0.000000 9.811240 -4.405208 -0.614650 64.097157 16.698410 9.265013 2.908376 28.996481 0.011037 1.028233 5.216779 0.044502 0.085366 -0.105057 0.000000 0.000000 0.000000 0.000000 0.000000 0.000000 0.000000 
-0.623013 17.111176 0.395122 112.972155 88.589491 111.956013 0.264383 -0.793888 -1.510950 -0.534372 -0.875323 -2.777642 -5.359440 -0.902394 1.802815 5.822468 -8.663940 -7.449178 -2.731041 -0.213797 0.049209 0.000000 0.000000 0.000000 -2.878715 17.872602 1.073525 -57.748421 9.820148 0.156422 -4.202143 -19.514856 -0.003879 2.307086 2.488994 0.054871 -0.152993 -0.050351 -0.000000 0.000000 0.000000 0.000000 0.000000 0.000000 0.000000 9.585210 -4.215166 -0.635291 63.417104 17.419929 10.215709 2.829002 29.933407 0.010914 1.089328 5.165626 0.047106 0.083051 -0.107308 0.000000 0.000000 0.000000 0.000000 0.000000 0.000000 0.000000 
-0.482371 17.110394 0.415046 107.908712 88.673389 107.052766 0.013012 -0.681836 -1.635228 -0.577884 -0.749274 -2.793192 -5.326874 -0.778878 1.835630 5.730505 -8.603195 -7.486879 -2.699796 -0.211171 0.039096 0.000000 0.000000 0.000000 -3.018414 18.324412 1.058725 -58.072593 10.388877 -1.733103 -4.265461 -18.086053 -0.003437 2.766465 2.421380 0.063334 -0.153702 -0.049589 -0.000000 0.000000 0.000000 0.000000 0.000000 0.000000 0.000000 9.363668 -4.063939 -0.649226 62.723368 18.150416 11.172914 2.748592 30.844320 0.010759 1.136018 5.102948 0.048808 0.080828 -0.109486 0.000000 0.000000 0.000000 0.000000 0.000000 0.000000 0.000000 
-0.340683 17.107730 0.434926 102.963586 88.748724 102.260517 -0.236701 -0.580354 -1.749874 -0.620358 -0.633619 -2.807493 -5.294524 -0.665923 1.865785 5.641266 -8.545273 -7.529090 -2.667001 -0.208350 0.027789 0.000000 0.000000 0.000000 -3.144321 18.766954 1.046794 -58.379969 10.988729 -3.542115 -4.318102 -16.740377 -0.002972 3.230314 2.347923 0.071099 -0.154242 -0.048867 -0.000000 0.000000 0.000000 0.000000 0.000000 0.000000 0.000000 9.142174 -3.921276 -0.660686 62.025107 18.859237 12.082063 2.667222 31.746948 0.010597 1.191179 5.034467 0.050706 0.078375 -0.111665 0.000000 0.000000 0.000000 0.000000 0.000000 0.000000 0.000000 
-0.198019 17.103079 0.454927 98.148514 88.814039 97.590006 -0.489421 -0.489071 -1.852426 -0.662747 -0.527571 -2.820427 -5.262190 -0.562744 1.891904 5.554728 -8.489826 -7.575315 -2.632542 -0.205329 0.015418 0.000000 0.000000 0.000000 -3.256118 19.194188 1.038493 -58.674256 11.627299 -5.249595 -4.361884 -15.488748 -0.002508 3.674556 2.272108 0.077866 -0.154689 -0.048301 -0.000000 0.000000 0.000000 0.000000 0.000000 0.000000 0.000000 8.919886 -3.786107 -0.669404 61.326252 19.541358 12.946789 2.584512 32.648243 0.010420 1.252822 4.955098 0.052803 0.075703 -0.113834 0.000000 0.000000 0.000000 0.000000 0.000000 0.000000 0.000000 
-0.054388 17.096397 0.475179 93.522460 88.867938 93.101271 -0.749488 -0.407699 -1.942804 -0.706049 -0.430526 -2.832236 -5.229987 -0.468732 1.913006 5.472556 -8.444893 -7.625457 -2.596646 -0.202133 0.002056 0.000000 0.000000 0.000000 -3.356147 19.593459 1.033493 -58.958827 12.322646 -6.839401 -4.398762 -14.353493 -0.002089 4.074818 2.205485 0.083435 -0.155118 -0.048040 -0.000000 0.000000 0.000000 0.000000 0.000000 0.000000 0.000000 8.701279 -3.666427 -0.674097 60.625690 20.205471 13.786826 2.500663 33.544788 0.010228 1.312558 4.868914 0.054698 0.072923 -0.116019 0.000000 0.000000 0.000000 0.000000 0.000000 0.000000 0.000000 
0.090234 17.087617 0.495729 89.179149 88.909695 88.889705 -1.020163 -0.335059 -2.021931 -0.751201 -0.341107 -2.843126 -5.198182 -0.382484 1.929422 5.395128 -8.401646 -7.678581 -2.559238 -0.198759 -0.012092 0.000000 0.000000 0.000000 -3.442637 19.975115 1.032460 -59.235565 13.058528 -8.275861 -4.430585 -13.331034 -0.001743 4.415127 2.156620 0.088206 -0.155601 -0.048118 -0.000000 0.000000 0.000000 0.000000 0.000000 0.000000 0.000000 8.484321 -3.552450 -0.676493 59.927700 20.834019 14.581298 2.415411 34.449662 0.010027 1.376583 4.773197 0.056492 0.069930 -0.118236 0.000000 0.000000 0.000000 0.000000 0.000000 0.000000 0.000000 
0.235983 17.076734 0.516602 85.209332 88.940468 85.049200 -1.302011 -0.269899 -2.092649 -0.798658 -0.258124 -2.853254 -5.167155 -0.302749 1.943116 5.323687 -8.359429 -7.735522 -2.520371 -0.195198 -0.027283 0.000000 0.000000 0.000000 -3.516278 20.351527 1.035048 -59.504583 13.818363 -9.521483 -4.458542 -12.422241 -0.001506 4.685260 2.138059 0.092578 -0.156164 -0.048592 -0.000000 0.000000 0.000000 0.000000 0.000000 0.000000 0.000000 8.270834 -3.443044 -0.678076 59.232552 21.422356 15.324351 2.328813 35.367148 0.009824 1.445367 4.672810 0.058384 0.066696 -0.120524 0.000000 0.000000 0.000000 0.000000 0.000000 0.000000 0.000000 
0.382784 17.063604 0.537863 81.695858 88.960804 81.660570 -1.597642 -0.209729 -2.154480 -0.849182 -0.178872 -2.863706 -5.136555 -0.226850 1.949619 5.258544 -8.330041 -7.791292 -2.480443 -0.191566 -0.042031 0.000000 0.000000 0.000000 -3.575850 20.681623 1.039897 -59.780902 14.642770 -10.645427 -4.486465 -11.638456 -0.001384 4.860628 2.145894 0.096352 -0.156894 -0.049469 -0.000000 0.000000 0.000000 0.000000 0.000000 0.000000 0.000000 8.063243 -3.350440 -0.675547 58.538879 21.976669 16.040827 2.241231 36.294691 0.009606 1.505630 4.563267 0.059673 0.063440 -0.122869 0.000000 0.000000 0.000000 0.000000 0.000000 0.000000 0.000000 
